HIERARCHY
ROOT Hips
{
	OFFSET 0.000000 0.000000 0.000000
	CHANNELS 6 Xposition Yposition Zposition Zrotation Yrotation Xrotation 
	JOINT LHipJoint
	{
		OFFSET 0.000000 0.000000 0.000000
		CHANNELS 3 Zrotation Yrotation Xrotation
		JOINT LeftUpLeg
		{
			OFFSET 1.363060 -1.794630 0.839290
			CHANNELS 3 Zrotation Yrotation Xrotation
			JOINT LeftLeg
			{
				OFFSET 2.448110 -6.726130 0.000000
				CHANNELS 3 Zrotation Yrotation Xrotation
				JOINT LeftFoot
				{
					OFFSET 2.562200 -7.039590 0.000000
					CHANNELS 3 Zrotation Yrotation Xrotation
					JOINT LeftToeBase
					{
						OFFSET 0.157640 -0.433110 2.322550
						CHANNELS 3 Zrotation Yrotation Xrotation
						End Site
						{
							OFFSET 0.000000 0.000000 0.000000
						}
					}
				}
			}
		}
	}
	JOINT RHipJoint
	{
		OFFSET 0.000000 0.000000 0.000000
		CHANNELS 3 Zrotation Yrotation Xrotation
		JOINT RightUpLeg
		{
			OFFSET -1.305520 -1.794630 0.839290
			CHANNELS 3 Zrotation Yrotation Xrotation
			JOINT RightLeg
			{
				OFFSET -2.542530 -6.985550 0.000000
				CHANNELS 3 Zrotation Yrotation Xrotation
				JOINT RightFoot
				{
					OFFSET -2.568260 -7.056230 0.000000
					CHANNELS 3 Zrotation Yrotation Xrotation
					JOINT RightToeBase
					{
						OFFSET -0.164730 -0.452590 2.363150
						CHANNELS 3 Zrotation Yrotation Xrotation
						End Site
						{
							OFFSET 0.000000 0.000000 0.000000
						}
					}
				}
			}
		}
	}
	JOINT LowerBack
	{
		OFFSET 0.000000 0.000000 0.000000
		CHANNELS 3 Zrotation Yrotation Xrotation
		JOINT Spine
		{
			OFFSET 0.028270 2.035590 -0.193380
			CHANNELS 3 Zrotation Yrotation Xrotation
			JOINT Spine1
			{
				OFFSET 0.056720 2.048850 -0.042750
				CHANNELS 3 Zrotation Yrotation Xrotation
				JOINT Neck
				{
					OFFSET 0.000000 0.000000 0.000000
					CHANNELS 3 Zrotation Yrotation Xrotation
					JOINT Neck1
					{
						OFFSET -0.054170 1.746240 0.172020
						CHANNELS 3 Zrotation Yrotation Xrotation
						JOINT Head
						{
							OFFSET 0.104070 1.761360 -0.123970
							CHANNELS 3 Zrotation Yrotation Xrotation
							End Site
							{
								OFFSET 0.000000 0.000000 0.000000
							}
						}
					}
				}
				JOINT LeftShoulder
				{
					OFFSET 0.000000 0.000000 0.000000
					CHANNELS 3 Zrotation Yrotation Xrotation
					JOINT LeftArm
					{
						OFFSET 3.362410 1.200890 -0.311210
						CHANNELS 3 Zrotation Yrotation Xrotation
						JOINT LeftForeArm
						{
							OFFSET 4.983000 -0.000000 -0.000000
							CHANNELS 3 Zrotation Yrotation Xrotation
							JOINT LeftHand
							{
								OFFSET 3.483560 -0.000000 -0.000000
								CHANNELS 3 Zrotation Yrotation Xrotation
								JOINT LeftFingerBase
								{
									OFFSET 0.000000 0.000000 0.000000
									CHANNELS 3 Zrotation Yrotation Xrotation
									JOINT LeftHandIndex1
									{
										OFFSET 0.715260 -0.000000 -0.000000
										CHANNELS 3 Zrotation Yrotation Xrotation
										End Site
										{
											OFFSET 0.000000 0.000000 0.000000
										}
									}
								}
								JOINT LThumb
								{
									OFFSET 0.000000 0.000000 0.000000
									CHANNELS 3 Zrotation Yrotation Xrotation
									End Site
									{
										OFFSET 0.000000 0.000000 0.000000
									}
								}
							}
						}
					}
				}
				JOINT RightShoulder
				{
					OFFSET 0.000000 0.000000 0.000000
					CHANNELS 3 Zrotation Yrotation Xrotation
					JOINT RightArm
					{
						OFFSET -3.136600 1.374050 -0.404650
						CHANNELS 3 Zrotation Yrotation Xrotation
						JOINT RightForeArm
						{
							OFFSET -5.241900 -0.000000 -0.000000
							CHANNELS 3 Zrotation Yrotation Xrotation
							JOINT RightHand
							{
								OFFSET -3.444170 -0.000000 -0.000000
								CHANNELS 3 Zrotation Yrotation Xrotation
								JOINT RightFingerBase
								{
									OFFSET 0.000000 0.000000 0.000000
									CHANNELS 3 Zrotation Yrotation Xrotation
									JOINT RightHandIndex1
									{
										OFFSET -0.622530 -0.000000 -0.000000
										CHANNELS 3 Zrotation Yrotation Xrotation
										End Site
										{
											OFFSET 0.000000 0.000000 0.000000
										}
									}
								}
								JOINT RThumb
								{
									OFFSET 0.000000 0.000000 0.000000
									CHANNELS 3 Zrotation Yrotation Xrotation
									End Site
									{
										OFFSET 0.000000 0.000000 0.000000
									}
								}
							}
						}
					}
				}
			}
		}
	}
}
MOTION
Frames: 5
Frame Time: 0.008333
54.538619 17.151646 20.369696 -174.797045 -41.645780 179.714316 2.330706 -1.314425 -1.593499 -16.649476 3.148859 -11.286714 1.248793 10.508195 28.111952 1.182108 -2.157300 -8.588480 0.051500 1.465000 4.029100 -3.864607 1.020668 -1.592469 29.221481 7.156159 -12.066206 -1.363463 -12.245536 32.091561 0.761754 -6.746778 -12.838003 -0.033800 -1.187600 3.265100 6.321677 -0.621464 -0.747947 1.261924 -1.133137 -1.053534 -3.445630 -0.353071 5.598972 -0.523913 -1.058905 -3.715870 9.096741 -3.057451 9.716021 1.914400 -1.172000 2.451100 -2.133848 -1.966387 0.272971 -80.550313 -0.257300 20.587751 6.863155 -19.216035 -2.345653 -1.266013 -1.726036 -20.916456 15.429455 7.739892 2.736300 -7.125000 0.000000 0.000000 -8.393800 39.122000 1.225800 4.177463 1.680494 -0.483760 77.530677 -3.172753 20.714563 -13.309336 27.476605 -5.129983 1.828668 1.046251 -4.061998 -21.153983 -9.604750 4.413500 7.125000 0.000000 0.000000 3.557800 -41.286900 0.326300 
54.526150 17.151108 20.369051 -174.850206 -41.689287 179.513166 2.313304 -1.292384 -1.576325 -16.703391 3.201935 -10.893280 1.209576 10.422809 27.884526 1.180004 -2.140064 -8.628721 0.042400 1.329000 3.654500 -3.869386 0.999117 -1.586136 29.206967 7.118670 -11.767375 -1.369934 -12.224379 32.089607 0.792055 -6.872110 -12.946424 -0.031000 -1.136400 3.124200 6.214887 -0.739958 -0.669986 1.300785 -1.294473 -1.051003 -3.224216 -0.445486 5.568790 -0.660847 -1.033870 -3.647804 9.051248 -3.000999 9.679064 1.893200 -1.147500 2.400300 -2.113733 -1.963151 0.283447 -80.783296 -0.155968 20.134961 6.670577 -18.972199 -2.279083 -1.290970 -1.678294 -20.567731 15.543086 7.426395 2.646200 -7.125000 0.000000 0.000000 -8.239400 38.764400 1.275800 4.203246 1.675095 -0.477074 77.403851 -3.110880 20.974889 -13.347929 27.500136 -5.139803 1.848131 1.052920 -4.169320 -21.401275 -9.641662 4.486300 7.125000 0.000000 0.000000 3.324200 -41.352000 0.299500 
54.515723 17.147453 20.368943 -174.887212 -41.754721 179.333300 2.309341 -1.270222 -1.565883 -16.732717 3.378328 -10.602252 1.182802 10.358048 27.720714 1.222842 -2.348835 -8.591231 0.043100 1.340000 3.684900 -3.872010 0.983552 -1.582505 29.202829 7.144405 -11.501491 -1.384466 -12.222979 32.135379 0.814436 -6.991378 -13.143551 -0.027300 -1.066100 2.930800 6.131302 -0.736159 -0.603892 1.302060 -1.282400 -1.045673 -3.168566 -0.443376 5.625347 -0.652418 -1.028325 -3.870280 9.154162 -3.014744 9.733956 1.956000 -1.145300 2.518800 -2.134073 -1.961965 0.282873 -80.705452 -0.197781 20.126344 6.455154 -18.696039 -2.201454 -1.308657 -1.659171 -20.325868 15.570967 7.306548 2.609500 -7.125000 0.000000 0.000000 -8.189600 38.626400 1.296000 4.195646 1.683933 -0.487238 77.539957 -3.035562 20.855930 -13.387722 27.518878 -5.156095 1.860037 1.041795 -4.249473 -21.612009 -9.592346 4.506400 7.125000 0.000000 0.000000 3.118200 -41.302800 0.284700 
54.509058 17.147776 20.373565 -174.892306 -41.940945 179.306384 2.296915 -1.263858 -1.555742 -16.726108 3.389265 -10.509440 1.146508 10.296517 27.542145 1.260545 -2.560559 -8.413668 0.043900 1.352900 3.720400 -3.873710 0.978363 -1.578683 29.173740 7.147649 -11.456191 -1.390981 -12.228874 32.166548 0.778804 -6.907107 -13.309387 -0.038600 -1.268500 3.487800 6.086607 -0.758287 -0.701555 1.306094 -1.314944 -1.057515 -3.155970 -0.463579 5.598460 -0.595307 -1.140704 -3.780440 9.146964 -3.167326 9.718274 1.943600 -1.225400 2.486900 -2.198411 -1.965357 0.310034 -80.134795 -0.320292 22.179066 6.056971 -18.253547 -2.038406 -1.320490 -1.695046 -22.177321 15.737595 7.047787 2.554800 -7.125000 0.000000 0.000000 -7.952300 38.342800 1.313600 4.206071 1.678817 -0.500348 77.650232 -3.146552 20.911354 -13.471312 27.618743 -5.197793 1.882100 1.048905 -4.290771 -21.926858 -9.756529 4.650000 7.125000 0.000000 0.000000 2.838300 -41.513400 0.244300 
54.500351 17.146808 20.376145 -174.918538 -42.065310 179.222481 2.287280 -1.252634 -1.545441 -16.744979 3.450449 -10.346981 1.118596 10.242435 27.393679 1.294193 -2.740595 -8.313060 0.044400 1.359200 3.737800 -3.877553 0.969244 -1.574808 29.152076 7.143517 -11.339103 -1.402266 -12.232936 32.207172 0.791573 -6.983987 -13.456529 -0.038600 -1.267700 3.485600 6.014587 -0.784342 -0.732199 1.316101 -1.350647 -1.063175 -3.080800 -0.486791 5.594762 -0.597756 -1.194838 -3.789147 9.167963 -3.243856 9.727091 1.953300 -1.263100 2.503100 -2.216037 -1.963715 0.318074 -79.978424 -0.317384 22.786060 5.860943 -18.028449 -1.964600 -1.331957 -1.693431 -22.670801 15.816470 6.869751 2.507000 -7.125000 0.000000 0.000000 -7.838800 38.142700 1.333400 4.209664 1.676322 -0.508291 77.718760 -3.175312 20.939028 -13.516257 27.660947 -5.217705 1.900059 1.048412 -4.296410 -22.183331 -9.822694 4.737000 7.125000 0.000000 0.000000 2.601500 -41.607100 0.217900 
